<svg xmlns="http://www.w3.org/2000/svg" aria-hidden="true" style="position:absolute;width:0;height:0;overflow:hidden">
    <defs>
        <symbol id="icon-minus" viewBox="0 0 288 32">
            <path stroke-linecap="round" stroke-linejoin="round" stroke-width="28.8" d="M29.711 16h228.571"/>
        </symbol>
        <symbol id="icon-plus" viewBox="0 0 32 32">
            <path stroke-linecap="round" stroke-linejoin="round" stroke-width="3.2" d="M16 3.302v25.397M3.301 16h25.397"/>
        </symbol>
        <symbol id="icon-water-glass" viewBox="0 0 31 32">
            <path d="M26.955 5.226c-.095-.321-.254-.616-.468-.868s-.477-.452-.772-.589a2.087 2.087 0 0 0-.937-.21H6.562a1.83 1.83 0 0 0-.937.197c-.301.139-.57.345-.785.604a2.36 2.36 0 0 0-.468.866 2.392 2.392 0 0 0-.089.984l2.076 18.377a5.202 5.202 0 0 0 1.633 3.255 4.78 4.78 0 0 0 3.253 1.313h8.861a4.804 4.804 0 0 0 3.266-1.313 5.316 5.316 0 0 0 1.62-3.255l1.127-10.331v-.158l.873-7.876a2.724 2.724 0 0 0-.038-.998zM14.17 25.375h-1.266a3.573 3.573 0 0 1-2.215-.945 3.744 3.744 0 0 1-1.139-2.192l-.304-2.258c-.039-.344.053-.691.258-.965s.504-.455.835-.503.667.04.936.246.45.512.503.854l.304 2.232c.034.244.151.467.329.63a1 1 0 0 0 .646.276h1.266c.336 0 .658.138.895.384s.371.58.371.928-.133.682-.371.928a1.242 1.242 0 0 1-.895.384h-.152zm10.127-12.116c-2.671.538-4.949.643-7.367-1.313-3-2.455-6.633-1.667-10.127-.381L6.17 5.999a.41.41 0 0 1 0-.171.337.337 0 0 1 .089-.144.257.257 0 0 1 .127-.105.262.262 0 0 1 .152 0h18.38a.53.53 0 0 1 .127.105.314.314 0 0 1 .076.144.304.304 0 0 1 0 .184l-.823 7.246z"/>
        </symbol>
        <symbol id="icon-chevron" viewBox="0 0 32 32">
            <path stroke-linecap="round" stroke-linejoin="round" stroke-width="3.556" d="m20 24-8-8 8-8"/>
        </symbol>
        <symbol id="icon-eye" viewBox="0 0 32 32">
            <path stroke-linecap="round" stroke-linejoin="round" stroke-width="2.88" d="M1.333 16S6.666 5.333 16 5.333 30.667 16 30.667 16 25.334 26.667 16 26.667 1.333 16 1.333 16z"/>
            <path stroke-linecap="round" stroke-linejoin="round" stroke-width="2.88" d="M16 20a4 4 0 1 0 0-8 4 4 0 0 0 0 8z"/>
        </symbol>
        <symbol id="icon-upload" viewBox="0 0 32 32">
            <path stroke-linecap="round" stroke-linejoin="round" stroke-width="2.88" d="M28 20v5.333A2.668 2.668 0 0 1 25.333 28H6.666a2.668 2.668 0 0 1-2.667-2.667V20M22.666 10.667 15.999 4l-6.667 6.667M16 4v16"/>
        </symbol>
        <symbol id="icon-x" viewBox="0 0 32 32">
            <path stroke-linecap="round" stroke-linejoin="round" stroke-width="3.429" d="M24 8 8 24M8 8l16 16"/>
        </symbol>
        <symbol id="icon-pie-chart" viewBox="0 0 32 32">
            <path fill="none" stroke="#323f47" stroke-linecap="round" stroke-linejoin="round" stroke-width="2.667" d="M22.933 18.667c.369 0 .554 0 .704.082a.713.713 0 0 1 .293.324c.067.157.05.324.016.659a10.665 10.665 0 0 1-12.694 9.397c-2.069-.412-3.97-1.428-5.462-2.919s-2.508-3.392-2.919-5.461a10.666 10.666 0 0 1 9.397-12.694c.334-.034.502-.05.659.016.13.055.257.17.324.293.082.15.082.334.082.704v8.533c0 .373 0 .56.073.703a.67.67 0 0 0 .291.291c.143.073.329.073.703.073h8.533z" style="stroke:var(--color1, #323f47)"/>
            <path fill="none" stroke="#9be1a0" stroke-linecap="round" stroke-linejoin="round" stroke-width="2.667" d="M18.667 3.733c0-.369 0-.554.082-.704a.713.713 0 0 1 .324-.293c.157-.067.324-.05.659-.016a10.67 10.67 0 0 1 9.549 9.549c.033.334.05.502-.016.659a.704.704 0 0 1-.293.324c-.15.082-.334.082-.704.082h-8.533c-.373 0-.56 0-.703-.073a.67.67 0 0 1-.291-.291c-.073-.143-.073-.329-.073-.703V3.734z" style="stroke:var(--color2, #9be1a0)"/>
        </symbol>
        <symbol id="icon-log-out" viewBox="0 0 32 32">
            <path stroke-linecap="round" stroke-linejoin="round" stroke-width="3" d="M12 28H6.667A2.668 2.668 0 0 1 4 25.333V6.666a2.668 2.668 0 0 1 2.667-2.667H12M21.334 22.667 28.001 16l-6.667-6.667M28 16H12"/>
        </symbol>
        <symbol id="icon-trash" viewBox="0 0 32 32">
            <path stroke-linecap="round" stroke-linejoin="round" stroke-width="3" d="M12 4h8"/>
            <path stroke-linecap="round" stroke-linejoin="round" stroke-width="3.6" d="M4 8h24m-2.667 0-.935 14.026c-.14 2.104-.21 3.156-.665 3.954a4.007 4.007 0 0 1-1.731 1.62c-.826.4-1.881.4-3.99.4h-4.025c-2.109 0-3.163 0-3.99-.4a4.001 4.001 0 0 1-1.731-1.62c-.455-.798-.525-1.85-.665-3.954L6.666 8"/>
        </symbol>
        <symbol id="icon-edit" viewBox="0 0 32 32">
            <path stroke-linecap="round" stroke-linejoin="round" stroke-width="3.6" d="M22.666 4a3.766 3.766 0 0 1 4.109-.817 3.781 3.781 0 0 1 2.041 2.04 3.764 3.764 0 0 1 0 2.886 3.756 3.756 0 0 1-.817 1.223l-18 18-7.333 2 2-7.333 18-18z"/>
        </symbol>
        <symbol id="icon-eye-off" viewBox="0 0 32 32">
            <path stroke-linecap="round" stroke-linejoin="round" stroke-width="2.88" d="M23.92 23.92A13.43 13.43 0 0 1 16 26.667C6.667 26.667 1.333 16 1.333 16A24.605 24.605 0 0 1 8.08 8.08m5.12-2.427a12.161 12.161 0 0 1 2.8-.32C25.333 5.333 30.667 16 30.667 16a24.646 24.646 0 0 1-2.88 4.253m-8.961-1.426a4.01 4.01 0 0 1-2.855 1.273 3.978 3.978 0 0 1-1.569-.291 3.984 3.984 0 0 1-2.21-2.21 3.995 3.995 0 0 1 .983-4.424M1.333 1.333l29.333 29.333"/>
        </symbol>
        <symbol id="icon-arrow" viewBox="0 0 8 12">
            <path stroke-linecap="round" stroke-linejoin="round" stroke-width="2" d="M6.25 10.5L1.75 6L6.25 1.5"/>
        </symbol>
        <symbol id="icon-add" viewBox="0 0 24 24">
            <path d="M18.984 12.984h-6v6h-1.969v-6h-6v-1.969h6v-6h1.969v6h6v1.969z"></path>
        </symbol>
        <symbol id="icon-clear" viewBox="0 0 24 24">
            <path d="M18.984 6.422l-5.578 5.578 5.578 5.578-1.406 1.406-5.578-5.578-5.578 5.578-1.406-1.406 5.578-5.578-5.578-5.578 1.406-1.406 5.578 5.578 5.578-5.578z"></path>
        </symbol>
        <symbol id="icon-remove" viewBox="0 0 24 24">
            <path d="M18.984 12.984h-13.969v-1.969h13.969v1.969z"></path>
        </symbol>
        <symbol id="icon-chevron-up" viewBox="0 0 32 32">
            <path stroke-linejoin="round" stroke-linecap="round" stroke-miterlimit="4" stroke-width="3.2" d="M8 20l8-8 8 8"></path>
        </symbol>
        <symbol id="icon-chevron-down" viewBox="0 0 32 32">
            <path stroke-linejoin="round" stroke-linecap="round" stroke-miterlimit="4" stroke-width="3.2" d="M8 12l8 8 8-8"></path>
        </symbol>
        <symbol id="icon-settings" viewBox="0 0 32 32">
            <path fill="none" stroke="#323F47" stroke-linejoin="round" stroke-linecap="round" stroke-miterlimit="4" stroke-width="3" d="M16 20c2.209 0 4-1.791 4-4s-1.791-4-4-4c-2.209 0-4 1.791-4 4s1.791 4 4 4z"/>
            <path fill="none" stroke="#323F47" stroke-linejoin="round" stroke-linecap="round" stroke-miterlimit="4" stroke-width="3" d="M25.867 20c-0.178 0.402-0.231 0.848-0.152 1.281s0.285 0.832 0.592 1.146l0.080 0.080c0.248 0.248 0.445 0.542 0.579 0.865s0.203 0.671 0.203 1.021c0 0.35-0.069 0.697-0.203 1.021s-0.331 0.618-0.579 0.865c-0.248 0.248-0.542 0.445-0.866 0.579s-0.671 0.203-1.021 0.203c-0.35 0-0.697-0.069-1.021-0.203s-0.618-0.331-0.865-0.579l-0.080-0.080c-0.314-0.307-0.713-0.514-1.146-0.592s-0.879-0.025-1.281 0.152c-0.394 0.169-0.731 0.45-0.968 0.807s-0.364 0.777-0.366 1.206v0.227c0 0.707-0.281 1.386-0.781 1.886s-1.178 0.781-1.886 0.781-1.386-0.281-1.886-0.781c-0.5-0.5-0.781-1.178-0.781-1.886v-0.12c-0.010-0.441-0.153-0.869-0.41-1.228s-0.616-0.633-1.030-0.785c-0.402-0.178-0.848-0.231-1.281-0.152s-0.832 0.285-1.146 0.592l-0.080 0.080c-0.248 0.248-0.542 0.445-0.865 0.579s-0.671 0.203-1.021 0.203c-0.35 0-0.697-0.069-1.021-0.203s-0.618-0.331-0.865-0.579c-0.248-0.248-0.445-0.542-0.579-0.866s-0.203-0.671-0.203-1.021c0-0.35 0.069-0.697 0.203-1.021s0.331-0.618 0.579-0.865l0.080-0.080c0.307-0.314 0.514-0.713 0.592-1.146s0.025-0.879-0.152-1.281c-0.169-0.394-0.45-0.731-0.807-0.968s-0.777-0.364-1.206-0.366h-0.227c-0.707 0-1.386-0.281-1.886-0.781s-0.781-1.178-0.781-1.886c0-0.707 0.281-1.386 0.781-1.886s1.178-0.781 1.886-0.781h0.12c0.441-0.010 0.869-0.153 1.228-0.41s0.633-0.616 0.785-1.030c0.178-0.402 0.23-0.848 0.152-1.281s-0.285-0.832-0.592-1.146l-0.080-0.080c-0.248-0.248-0.445-0.542-0.579-0.866s-0.203-0.671-0.203-1.021c0-0.35 0.069-0.697 0.203-1.021s0.331-0.618 0.579-0.865c0.248-0.248 0.542-0.445 0.865-0.579s0.671-0.203 1.021-0.203c0.35 0 0.697 0.069 1.021 0.203s0.618 0.331 0.866 0.579l0.080 0.080c0.314 0.307 0.713 0.514 1.146 0.592s0.879 0.025 1.281-0.152h0.107c0.394-0.169 0.731-0.45 0.968-0.807s0.364-0.777 0.366-1.206v-0.227c0-0.707 0.281-1.386 0.781-1.886s1.178-0.781 1.886-0.781c0.707 0 1.386 0.281 1.886 0.781s0.781 1.178 0.781 1.886v0.12c0.002 0.429 0.129 0.848 0.366 1.206s0.573 0.638 0.968 0.807c0.402 0.177 0.848 0.23 1.281 0.152s0.832-0.285 1.146-0.592l0.080-0.080c0.248-0.248 0.542-0.445 0.865-0.579s0.671-0.203 1.021-0.203c0.35 0 0.697 0.069 1.021 0.203s0.618 0.331 0.865 0.579c0.248 0.248 0.445 0.542 0.579 0.865s0.203 0.671 0.203 1.021c0 0.35-0.069 0.697-0.203 1.021s-0.331 0.618-0.579 0.865l-0.080 0.080c-0.307 0.314-0.514 0.713-0.592 1.146s-0.025 0.879 0.152 1.281v0.107c0.169 0.394 0.45 0.731 0.807 0.968s0.777 0.364 1.206 0.366h0.227c0.707 0 1.386 0.281 1.886 0.781s0.781 1.178 0.781 1.886-0.281 1.386-0.781 1.886c-0.5 0.5-1.178 0.781-1.886 0.781h-0.12c-0.429 0.002-0.848 0.129-1.206 0.366s-0.638 0.573-0.807 0.968z"/>
        </symbol>
        <symbol id="icon-tour" viewBox="0 0 32 32">
            <path fill="#323F47" d="M28.681 7.159c-0.694-0.947-1.662-2.053-2.724-3.116s-2.169-2.030-3.116-2.724c-1.612-1.182-2.393-1.319-2.841-1.319h-15.5c-1.378 0-2.5 1.121-2.5 2.5v27c0 1.378 1.122 2.5 2.5 2.5h23c1.378 0 2.5-1.122 2.5-2.5v-19.5c0-0.448-0.137-1.23-1.319-2.841zM24.543 5.457c0.959 0.959 1.712 1.825 2.268 2.543h-4.811v-4.811c0.718 0.556 1.584 1.309 2.543 2.268zM28 29.5c0 0.271-0.229 0.5-0.5 0.5h-23c-0.271 0-0.5-0.229-0.5-0.5v-27c0-0.271 0.229-0.5 0.5-0.5 0 0 15.499-0 15.5 0v7c0 0.552 0.448 1 1 1h7v19.5z"></path>
            <path fill="#323F47" d="M23 26h-14c-0.552 0-1-0.448-1-1s0.448-1 1-1h14c0.552 0 1 0.448 1 1s-0.448 1-1 1z"></path>
            <path fill="#323F47" d="M23 22h-14c-0.552 0-1-0.448-1-1s0.448-1 1-1h14c0.552 0 1 0.448 1 1s-0.448 1-1 1z"></path>
        </symbol>
        <symbol id="icon-water-drop" viewBox="0 0 73 59">
           <g filter="url(#filter0_d_66_1211)">
            <path fill-rule="evenodd" clip-rule="evenodd" d="M23 5C15.8203 5 10 10.8203 10 18V23.8269C10 31.0066 15.8203 36.8269 23 36.8269H33.4127L37.5802 44.0002L41.5655 36.8269H50C57.1797 36.8269 63 31.0066 63 23.8269V18C63 10.8203 57.1797 5 50 5H23Z" fill="white" />
           </g>
          </symbol>
    </defs>
</svg>
